<?xml version="1.0" standalone="no"?>
<!DOCTYPE svg PUBLIC "-//W3C//DTD SVG 20010904//EN"
 "http://www.w3.org/TR/2001/REC-SVG-20010904/DTD/svg10.dtd">
<svg version="1.0" xmlns="http://www.w3.org/2000/svg"
 width="4163.000000pt" height="4163.000000pt" viewBox="0 0 4163.000000 4163.000000"
 preserveAspectRatio="xMidYMid meet">
<metadata>
Created by potrace 1.14, written by Peter Selinger 2001-2017
</metadata>
<g transform="translate(0.000000,4163.000000) scale(0.100000,-0.100000)"
fill="#000000" stroke="none">
<path d="M20044 40827 c-6 -12 -49 -89 -96 -172 -96 -171 -113 -200 -213 -380
-39 -71 -101 -182 -137 -245 -36 -63 -76 -135 -90 -160 -14 -25 -56 -99 -93
-165 -105 -187 -198 -352 -220 -393 -11 -20 -35 -64 -54 -97 -19 -33 -50 -89
-69 -125 -19 -36 -41 -72 -48 -81 -8 -8 -14 -18 -14 -21 0 -3 -48 -90 -106
-194 -59 -104 -119 -211 -134 -239 -15 -27 -101 -180 -190 -340 -90 -159 -173
-308 -186 -330 -12 -22 -54 -98 -95 -170 -40 -71 -82 -148 -94 -170 -28 -50
-51 -61 -140 -69 -39 -4 -81 -8 -95 -11 -26 -4 -83 -11 -167 -20 -27 -3 -57
-8 -68 -10 -11 -2 -47 -7 -80 -11 -33 -3 -64 -7 -69 -7 -8 -2 -28 56 -126 373
-21 69 -61 197 -89 285 -47 152 -110 358 -133 435 -6 19 -14 44 -19 55 -4 11
-17 50 -28 88 -103 330 -360 590 -695 702 -197 65 -443 66 -651 3 -38 -12 -74
-23 -80 -24 -12 -3 -347 -107 -430 -134 -33 -10 -193 -60 -355 -110 -162 -51
-329 -109 -371 -130 -182 -90 -294 -190 -436 -386 -5 -5 -15 -23 -24 -40 -8
-16 -20 -38 -26 -49 -39 -71 -77 -180 -98 -287 -24 -117 -24 -339 1 -420 3 -9
7 -25 9 -36 5 -27 75 -262 86 -287 4 -11 22 -67 39 -125 18 -58 51 -168 75
-245 24 -77 66 -212 94 -300 27 -88 46 -163 43 -166 -4 -4 -59 -25 -122 -49
-318 -116 -818 -323 -1112 -459 -38 -17 -96 -44 -130 -60 -35 -16 -146 -69
-248 -119 -102 -50 -191 -92 -198 -94 -9 -2 -207 238 -362 442 -166 218 -417
528 -466 577 -154 151 -376 261 -588 291 -65 9 -288 8 -341 -2 -125 -23 -273
-79 -373 -141 -58 -35 -201 -142 -312 -232 -8 -7 -85 -67 -170 -133 -85 -66
-162 -126 -170 -133 -8 -7 -96 -75 -195 -152 -99 -77 -214 -173 -256 -215
-284 -284 -384 -703 -259 -1088 33 -101 64 -167 116 -249 25 -39 311 -411 387
-503 7 -8 54 -68 104 -133 l92 -118 -32 -28 c-18 -15 -81 -67 -142 -116 -112
-92 -376 -313 -385 -324 -3 -3 -36 -33 -75 -66 -38 -33 -72 -62 -75 -65 -3 -3
-54 -50 -115 -104 -132 -120 -269 -249 -428 -403 l-117 -115 -33 25 c-17 13
-42 33 -54 43 -12 11 -32 28 -45 38 -12 11 -37 31 -53 45 -17 14 -48 40 -69
56 -21 17 -44 35 -50 40 -41 38 -532 439 -583 477 -122 90 -291 162 -429 184
-21 3 -57 9 -79 13 -47 9 -198 7 -270 -3 -204 -28 -411 -123 -559 -256 -66
-59 -94 -90 -210 -230 -140 -170 -262 -318 -290 -350 -11 -14 -48 -59 -81
-100 -33 -41 -63 -77 -66 -80 -9 -7 -200 -242 -224 -275 -11 -15 -24 -32 -30
-39 -27 -32 -122 -217 -130 -254 -2 -9 -10 -36 -19 -59 -8 -24 -13 -43 -11
-43 3 0 0 -11 -5 -24 -14 -38 -25 -161 -22 -265 5 -262 115 -524 300 -715 26
-27 121 -110 212 -184 91 -75 167 -139 170 -142 3 -3 41 -35 85 -70 73 -59
170 -139 235 -194 25 -20 116 -96 153 -126 10 -8 29 -24 43 -35 l23 -20 -87
-135 c-129 -198 -382 -606 -382 -615 0 -1 -24 -42 -53 -91 -29 -49 -56 -96
-60 -104 -4 -8 -18 -33 -30 -55 -150 -258 -386 -711 -535 -1025 -99 -210 -135
-288 -149 -322 -8 -21 -17 -38 -19 -38 -5 0 -212 89 -279 120 -33 15 -105 47
-159 70 -55 23 -122 53 -150 66 -169 78 -633 275 -692 294 -131 40 -305 54
-449 36 -165 -21 -306 -74 -458 -172 -60 -39 -91 -64 -161 -129 -75 -71 -175
-216 -222 -321 -14 -32 -36 -81 -49 -109 -12 -27 -37 -84 -55 -125 -18 -41
-42 -97 -55 -125 -12 -27 -35 -79 -50 -115 -15 -36 -38 -87 -50 -115 -13 -27
-37 -84 -55 -125 -18 -41 -45 -102 -60 -135 -101 -221 -151 -365 -167 -476
-10 -66 -10 -247 -1 -309 49 -338 253 -633 550 -794 35 -19 209 -98 387 -176
178 -78 341 -150 363 -161 21 -11 38 -17 38 -13 0 4 6 2 13 -4 6 -5 98 -47
202 -92 198 -86 213 -93 360 -158 50 -22 107 -47 128 -56 35 -14 38 -19 33
-43 -4 -16 -9 -41 -12 -58 -2 -16 -7 -37 -9 -45 -2 -8 -7 -31 -10 -50 -3 -19
-12 -62 -20 -95 -12 -53 -19 -91 -30 -160 -2 -11 -10 -56 -19 -100 -25 -130
-60 -339 -71 -415 -3 -25 -8 -56 -11 -70 -2 -14 -7 -43 -9 -65 -3 -22 -10 -67
-15 -100 -5 -33 -12 -80 -15 -105 -3 -25 -8 -56 -10 -70 -2 -14 -7 -50 -11
-80 -3 -30 -8 -57 -11 -60 -2 -3 -406 -5 -896 -6 -491 -1 -907 -4 -924 -8 -18
-3 -48 -8 -65 -11 -141 -23 -359 -125 -468 -220 -215 -185 -334 -391 -387
-669 -4 -17 -7 -337 -8 -711 -2 -528 0 -698 11 -760 12 -72 35 -165 51 -205 4
-8 7 -17 8 -20 14 -44 85 -173 129 -233 162 -225 404 -380 677 -432 77 -15
223 -18 970 -18 l837 0 -1 -31 c0 -32 10 -143 18 -206 2 -19 7 -69 10 -110 7
-81 10 -110 19 -182 3 -27 8 -69 11 -95 3 -27 7 -64 10 -83 2 -19 7 -57 10
-85 3 -27 8 -61 10 -75 5 -35 15 -108 20 -154 3 -22 7 -51 10 -65 2 -14 11
-73 20 -131 8 -58 17 -116 20 -130 3 -13 7 -42 10 -65 3 -22 15 -89 27 -150
11 -60 22 -123 25 -140 2 -16 18 -97 35 -180 16 -82 32 -161 34 -175 27 -148
154 -682 220 -924 20 -72 38 -137 40 -145 5 -23 28 -100 64 -221 17 -58 35
-118 40 -135 31 -113 234 -725 252 -758 5 -10 11 -26 13 -35 21 -92 326 -845
457 -1131 17 -36 40 -88 53 -116 12 -27 35 -77 51 -110 15 -33 28 -62 29 -65
1 -8 283 -570 323 -645 21 -38 60 -110 86 -160 27 -49 65 -119 86 -155 20 -36
40 -72 44 -80 4 -8 12 -24 19 -35 7 -11 34 -59 61 -105 210 -362 535 -874 713
-1125 305 -431 291 -411 517 -705 109 -142 322 -408 336 -420 3 -3 25 -30 49
-60 25 -30 53 -64 62 -75 43 -48 57 -64 104 -120 28 -33 57 -67 65 -76 8 -9
44 -49 80 -89 36 -41 72 -81 80 -90 8 -9 35 -38 59 -66 254 -283 845 -877
1069 -1072 29 -26 184 -165 202 -182 35 -33 360 -310 435 -370 44 -36 82 -67
85 -70 4 -4 146 -119 220 -177 226 -180 606 -457 925 -675 129 -88 642 -418
649 -418 2 0 46 -26 97 -58 83 -52 299 -178 407 -237 20 -12 64 -36 97 -54
358 -200 865 -453 1215 -608 69 -31 149 -66 179 -80 87 -39 284 -121 446 -185
83 -32 159 -63 170 -67 11 -5 45 -18 75 -29 30 -11 85 -32 121 -46 79 -30 228
-85 249 -91 8 -2 94 -31 191 -64 305 -105 859 -274 999 -306 8 -1 77 -20 154
-40 76 -20 145 -38 155 -40 9 -2 95 -22 191 -45 96 -23 184 -44 195 -46 11 -2
52 -11 90 -19 170 -37 550 -112 615 -120 19 -3 46 -7 60 -10 39 -8 59 -12 140
-25 41 -6 86 -14 100 -16 14 -2 57 -9 95 -14 39 -6 81 -12 95 -15 27 -4 40 -6
225 -31 141 -19 149 -19 240 -29 39 -4 79 -9 89 -11 10 -2 51 -6 90 -10 39 -3
89 -8 111 -10 22 -2 71 -6 108 -9 37 -3 82 -8 100 -10 18 -2 81 -7 141 -11 61
-3 117 -7 126 -9 9 -2 77 -6 151 -10 74 -4 152 -8 174 -10 91 -8 550 -18 825
-18 329 0 711 11 970 27 47 3 121 8 165 11 44 3 103 7 130 10 28 2 86 7 130
10 44 3 96 8 115 10 19 2 62 7 95 10 123 12 256 26 370 40 22 3 60 7 85 10 25
3 59 8 75 10 62 9 111 16 155 21 25 3 70 9 100 14 49 8 86 14 155 25 11 1 43
6 70 10 28 3 82 13 120 20 39 8 86 16 105 19 19 3 44 7 55 9 11 3 36 7 55 11
19 3 44 8 55 10 11 2 58 11 105 20 47 9 94 18 105 20 11 2 56 12 100 21 44 9
91 19 105 22 136 24 622 142 865 209 378 104 1026 309 1270 402 44 17 125 47
180 67 55 20 114 43 130 50 17 7 129 52 250 100 121 48 240 97 265 108 25 10
59 25 75 32 17 7 55 24 85 38 30 14 120 54 200 90 80 35 213 97 295 138 83 40
152 73 155 74 7 2 195 97 360 183 126 65 423 227 530 289 50 29 242 142 260
153 8 5 112 68 230 141 118 72 236 147 263 165 26 19 49 34 52 34 24 0 913
627 998 704 9 9 21 16 26 16 5 0 11 4 13 8 2 4 44 39 93 77 50 38 92 72 95 75
3 3 33 27 67 53 34 26 68 53 75 60 7 6 49 41 93 77 76 61 334 278 345 290 3 3
39 34 80 70 41 36 82 72 90 80 9 8 61 56 116 105 54 50 133 121 174 159 89 82
678 672 765 766 33 36 87 95 120 130 119 128 387 433 426 485 13 17 26 32 29
35 13 12 205 245 299 365 57 72 113 142 125 157 11 14 28 36 36 48 8 13 20 28
25 34 14 14 223 296 302 406 104 146 180 258 331 485 193 292 216 327 225 345
4 8 15 27 25 41 9 15 60 97 112 183 52 86 105 173 118 194 12 20 25 44 29 52
4 8 16 31 28 50 25 41 76 131 210 375 272 494 598 1192 817 1750 41 105 79
199 83 210 4 11 9 25 11 30 1 6 25 69 52 140 81 212 281 808 307 915 2 8 20
69 40 135 48 161 180 653 191 714 3 13 20 87 39 165 18 78 36 155 39 171 9 44
12 56 45 210 16 77 32 151 34 165 21 110 28 148 33 170 3 14 7 39 9 55 3 17 7
41 10 55 6 27 24 137 31 185 3 17 9 53 14 80 5 28 12 68 15 90 38 260 41 277
44 300 1 10 475 15 484 5 3 -3 29 -53 59 -111 83 -159 174 -275 300 -381 244
-205 520 -301 843 -293 319 8 607 134 835 364 102 103 168 194 230 318 40 80
94 231 105 293 21 121 23 159 20 290 -1 80 -6 156 -9 170 -3 14 -9 39 -12 55
-3 17 -14 60 -25 97 -136 462 -536 806 -1015 872 -96 13 -275 14 -341 2 -18
-3 -48 -8 -65 -11 -18 -3 -58 -13 -88 -21 -340 -95 -627 -328 -776 -633 l-49
-100 -198 0 -198 -1 5 82 c3 46 8 124 11 173 3 50 7 117 10 150 20 269 27
1255 11 1601 l-7 171 670 -1 670 -1 31 -48 c16 -26 30 -50 30 -53 0 -3 24 -35
54 -72 252 -315 595 -478 1001 -476 316 2 644 144 863 374 39 41 162 195 162
203 0 4 14 30 31 58 63 107 117 265 144 419 10 56 13 250 5 320 -14 111 -20
142 -56 250 -150 452 -539 774 -1014 840 -65 9 -313 6 -360 -4 -14 -3 -36 -8
-50 -11 -14 -4 -36 -8 -50 -11 -96 -20 -284 -102 -378 -166 -229 -155 -397
-369 -487 -621 l-33 -92 -651 -1 c-359 -1 -653 2 -655 5 -2 3 -6 38 -10 76 -4
39 -8 81 -10 95 -3 14 -7 48 -10 75 -9 82 -16 138 -21 170 -3 17 -8 50 -11 75
-3 25 -8 56 -10 70 -3 14 -7 45 -10 70 -3 25 -9 68 -14 95 -5 28 -12 70 -15
95 -3 25 -8 52 -10 60 -2 8 -6 33 -9 55 -4 22 -9 53 -12 68 -3 16 -7 38 -9 50
-6 47 -25 157 -30 169 -2 7 -7 31 -10 53 -3 22 -17 96 -31 165 -14 69 -28 134
-30 145 -9 44 -13 66 -44 200 -17 77 -33 151 -36 165 -3 14 -12 52 -21 85 -8
33 -17 68 -18 78 -4 16 74 17 1510 17 l1514 0 58 -87 c110 -169 321 -352 498
-433 72 -33 190 -75 240 -85 166 -34 401 -42 505 -17 25 6 56 13 70 16 54 10
167 50 239 83 165 77 322 198 426 328 22 28 42 52 45 55 33 31 130 209 165
304 53 140 76 273 76 431 0 131 -8 199 -38 314 -104 404 -407 729 -803 861
-137 46 -247 64 -400 64 -527 -1 -988 -332 -1165 -839 l-31 -90 -1581 0 -1582
0 -26 85 c-15 47 -56 171 -91 275 -36 105 -67 197 -69 205 -21 80 -283 767
-345 905 -9 22 -36 85 -59 140 -23 55 -48 114 -56 130 -7 17 -24 55 -38 85
-49 109 -66 146 -106 233 -23 49 -41 90 -41 91 0 0 648 1 1441 1 1363 0 1441
-1 1452 -18 78 -117 116 -164 195 -243 88 -89 223 -187 332 -241 67 -34 205
-79 300 -100 90 -19 342 -25 430 -9 466 79 829 387 984 834 19 56 34 102 31
102 -2 0 1 15 6 32 16 57 24 150 23 278 -2 234 -67 452 -197 653 -43 67 -46
71 -107 140 -273 311 -678 464 -1085 411 -49 -6 -110 -17 -135 -24 -25 -7 -52
-14 -60 -15 -8 -2 -40 -12 -70 -23 -216 -76 -415 -222 -568 -417 -69 -88 -151
-246 -189 -367 l-28 -88 -1610 0 -1610 1 -90 161 c-49 88 -132 231 -184 317
-51 86 -101 168 -110 184 -112 188 -367 577 -555 845 -102 146 -454 622 -508
687 -9 11 -51 63 -93 115 -125 156 -252 311 -311 380 -12 14 -66 77 -120 140
-55 63 -118 135 -141 160 -23 25 -51 56 -63 70 -326 380 -1090 1124 -1545
1505 -33 28 -69 58 -80 68 -11 10 -51 44 -90 75 -38 31 -72 60 -75 63 -33 39
-659 517 -904 691 -91 65 -615 416 -691 464 -28 18 -77 48 -109 69 -74 47
-414 252 -481 290 -27 16 -66 38 -87 49 -504 287 -1130 599 -1638 816 -41 18
-88 38 -105 45 -203 87 -612 246 -850 331 -280 99 -884 293 -959 308 -6 2 -31
9 -56 16 -25 7 -49 14 -55 16 -5 1 -62 17 -125 34 -63 18 -140 38 -170 45 -30
7 -89 22 -130 33 -41 12 -115 30 -165 41 -49 12 -128 30 -175 41 -220 52 -744
155 -940 186 -19 3 -73 12 -120 19 -47 8 -103 17 -125 20 -22 2 -49 7 -61 9
-12 2 -43 7 -70 11 -27 3 -58 7 -69 9 -11 2 -66 9 -122 16 -57 7 -107 18 -112
24 -4 6 -23 38 -41 71 -18 33 -42 76 -53 95 -11 19 -42 76 -70 125 -27 50 -61
110 -75 135 -62 112 -181 326 -245 440 -38 69 -81 145 -94 170 -85 151 -220
395 -251 450 -19 36 -62 111 -94 168 -32 57 -58 105 -58 108 0 2 -18 33 -40
69 -22 36 -40 67 -40 69 0 3 -29 55 -63 118 -35 62 -79 140 -97 173 -18 33
-85 152 -148 265 -63 113 -130 234 -150 270 -19 36 -74 135 -122 220 -48 85
-102 182 -120 215 -18 33 -49 87 -67 120 -19 33 -39 70 -45 83 -14 28 -20 28
-34 -1z"/>
<path d="M1525 15434 c-83 -53 -151 -98 -153 -99 -2 -2 26 -47 61 -101 253
-390 316 -607 226 -789 -48 -99 -133 -171 -303 -260 -156 -81 -373 -193 -551
-285 -99 -51 -184 -96 -189 -100 -5 -5 11 -47 37 -97 26 -48 74 -143 109 -210
39 -77 66 -119 73 -114 5 5 118 63 250 131 132 68 272 139 310 160 39 20 117
61 175 90 254 129 351 197 453 323 97 119 140 247 138 412 -1 33 -3 74 -6 90
-3 17 -7 44 -10 60 -15 88 -24 117 -76 251 -40 102 -147 306 -215 411 -61 95
-158 223 -169 223 -6 0 -78 -43 -160 -96z"/>
<path d="M39097 15434 c-1 -1 -24 -4 -51 -7 -201 -24 -413 -168 -569 -385 -47
-66 -187 -304 -187 -318 0 -3 -18 -41 -39 -87 -79 -167 -139 -313 -166 -407
-2 -8 -7 -24 -10 -35 -6 -19 11 -28 162 -88 93 -37 173 -67 180 -67 6 0 21 30
34 68 46 139 158 389 227 507 138 236 316 348 504 315 129 -22 153 -33 741
-334 148 -76 270 -136 272 -134 7 8 215 421 213 422 -7 3 -501 253 -673 341
-232 118 -329 159 -437 185 -69 16 -193 31 -201 24z"/>
<path d="M38926 14029 c-59 -116 -106 -212 -104 -214 2 -1 107 -56 233 -120
127 -65 312 -160 412 -211 l183 -94 39 78 c22 42 70 137 107 210 41 79 64 136
58 141 -5 5 -184 98 -399 206 -214 109 -394 202 -399 206 -6 5 -13 9 -16 9 -3
0 -54 -95 -114 -211z"/>
<path d="M2541 13785 c-40 -25 -75 -45 -77 -45 -2 0 -55 -31 -119 -70 -64 -38
-117 -70 -119 -70 -2 0 -55 -31 -117 -68 -63 -37 -121 -71 -129 -75 -8 -4 -35
-20 -60 -35 -25 -15 -69 -40 -98 -57 -29 -16 -52 -33 -52 -37 0 -4 18 -37 40
-73 22 -36 40 -67 40 -69 0 -2 29 -52 65 -111 36 -59 65 -110 65 -114 0 -3 8
-16 18 -29 l17 -22 285 166 c157 92 350 205 430 251 80 47 146 86 147 87 1 1
-18 34 -43 75 -24 40 -44 74 -44 76 0 1 -31 54 -68 116 -37 63 -71 122 -75
132 -9 25 -24 21 -106 -28z"/>
<path d="M37888 13549 c-203 -33 -361 -155 -461 -355 -36 -72 -65 -221 -60
-313 4 -88 33 -217 68 -305 14 -34 25 -65 25 -68 0 -3 -37 5 -82 19 -46 13
-91 26 -101 28 -10 2 -56 16 -103 30 -47 15 -87 25 -88 23 -10 -14 -149 -238
-182 -295 l-43 -71 72 -16 c40 -9 81 -18 92 -20 11 -2 58 -14 105 -25 47 -11
155 -37 240 -56 85 -20 212 -50 282 -66 l126 -31 53 -61 c60 -70 369 -379 510
-509 l93 -87 36 59 c19 33 77 127 128 210 50 83 92 154 92 159 0 8 -27 34
-155 146 -44 38 -91 81 -105 95 -14 14 -41 38 -60 54 -131 108 -357 327 -451
436 -104 120 -169 248 -169 333 0 101 72 210 155 234 55 17 149 8 197 -18 13
-7 25 -12 28 -12 27 3 210 -93 390 -205 258 -160 250 -154 240 -171 -4 -9 -56
-93 -113 -186 -58 -94 -105 -171 -104 -171 22 -17 349 -215 352 -212 5 6 475
770 475 773 0 3 -316 199 -633 393 -198 121 -456 234 -587 257 -58 10 -212 13
-262 4z"/>
<path d="M2765 12820 c-182 -115 -340 -215 -352 -222 -27 -15 -122 -75 -213
-133 -36 -23 -188 -119 -337 -214 -174 -111 -270 -177 -266 -185 4 -6 34 -54
68 -106 34 -52 87 -137 119 -187 32 -51 62 -96 67 -99 6 -3 33 10 62 29 29 19
88 57 132 84 232 146 317 200 382 242 39 25 84 53 100 62 38 22 535 336 548
346 6 5 64 42 130 83 66 41 129 81 141 90 20 15 19 18 -105 217 -69 111 -131
202 -136 203 -6 0 -159 -94 -340 -210z"/>
<path d="M3465 12154 c-77 -52 -165 -111 -195 -131 -30 -20 -57 -39 -60 -42
-3 -3 -52 -37 -110 -76 -58 -38 -199 -134 -313 -212 -115 -79 -213 -143 -217
-143 -5 0 -10 -3 -12 -7 -3 -8 -26 -24 -268 -188 -80 -54 -149 -101 -154 -105
-4 -5 16 -43 46 -87 30 -43 92 -133 137 -200 52 -76 87 -120 95 -116 6 4 52
34 101 68 50 34 155 106 235 160 80 54 192 131 250 170 160 109 341 232 485
330 269 183 351 239 377 258 l27 20 -27 36 c-15 20 -77 109 -137 199 -60 89
-111 162 -114 162 -3 0 -69 -43 -146 -96z"/>
<path d="M36815 11742 c-146 -24 -295 -88 -406 -171 -159 -120 -350 -366 -439
-565 -52 -117 -63 -101 129 -193 l168 -80 32 88 c57 152 163 295 274 370 136
90 298 104 456 40 250 -102 416 -333 396 -554 -14 -168 -131 -353 -310 -493
l-40 -32 115 -117 c63 -64 121 -123 128 -131 23 -24 37 -16 117 63 279 276
435 592 433 877 -2 272 -111 484 -343 667 -64 50 -90 69 -150 106 -39 24 -161
81 -207 97 -94 31 -258 44 -353 28z"/>
<path d="M4060 11483 c-49 -155 -153 -483 -174 -548 -15 -45 -28 -69 -37 -68
-8 1 -48 9 -89 18 -72 16 -201 21 -265 10 -146 -25 -325 -112 -620 -300 -55
-36 -124 -78 -152 -95 -29 -17 -55 -35 -57 -39 -3 -4 57 -89 133 -189 l139
-182 59 39 c32 21 117 76 189 122 72 46 139 90 150 96 54 35 226 114 279 128
111 28 139 20 116 -37 -8 -21 -74 -226 -76 -238 0 -3 -20 -66 -44 -140 -23
-74 -67 -214 -97 -310 -30 -96 -64 -201 -74 -234 l-19 -58 106 -142 c59 -77
110 -143 113 -146 3 -3 30 -38 60 -77 30 -40 57 -73 60 -73 3 0 30 80 60 178
29 97 66 215 81 262 15 47 48 153 74 235 65 210 64 208 89 201 285 -82 473
-45 809 156 196 118 239 148 229 161 -5 7 -60 80 -122 162 -62 83 -118 156
-125 163 -10 11 -20 8 -56 -16 -24 -16 -73 -47 -109 -70 -36 -22 -70 -45 -75
-49 -43 -33 -196 -111 -265 -135 -57 -20 -168 -32 -186 -20 -11 7 -1 44 96
347 167 527 165 518 127 557 -7 7 -62 78 -122 158 -60 80 -113 150 -117 155
-5 6 -21 27 -37 48 l-29 37 -22 -67z"/>
<path d="M35649 10587 c-46 -56 -91 -111 -101 -122 -40 -49 -192 -234 -288
-351 -58 -71 -111 -136 -119 -145 -12 -15 -40 5 -274 197 -144 118 -264 214
-268 214 -3 0 -28 -28 -55 -62 -26 -35 -51 -65 -54 -68 -4 -3 -48 -56 -98
-117 l-92 -113 27 -24 c28 -24 100 -84 144 -120 30 -25 338 -276 363 -296 10
-8 23 -20 30 -25 33 -31 276 -225 280 -225 5 0 62 68 241 285 52 63 105 129
118 145 20 24 101 124 112 136 6 6 24 28 40 50 17 21 44 55 61 76 l32 37 28
-22 c120 -93 213 -177 248 -226 39 -53 69 -129 111 -279 57 -210 103 -273 336
-463 24 -20 66 -55 94 -78 27 -23 52 -41 55 -41 3 0 44 46 90 103 46 56 90
109 97 117 48 55 113 136 113 141 0 3 -51 46 -113 97 -216 174 -241 211 -307
442 -80 279 -94 294 -731 810 l-37 30 -83 -103z"/>
<path d="M5224 9804 c-49 -54 -106 -115 -127 -138 l-38 -41 78 -70 c391 -350
543 -572 538 -780 -4 -156 -82 -266 -370 -520 -49 -44 -92 -83 -95 -86 -3 -3
-30 -27 -60 -54 -80 -69 -204 -182 -272 -245 l-59 -55 23 -25 c13 -14 59 -65
103 -115 44 -49 89 -99 100 -111 11 -12 35 -38 53 -58 19 -20 37 -36 40 -36 4
0 27 19 52 42 107 98 209 189 254 229 27 24 59 53 70 64 12 11 100 91 196 177
216 193 269 250 337 355 36 57 71 129 79 163 2 11 7 30 10 43 4 12 8 74 10
137 2 92 -2 133 -20 207 -45 182 -163 379 -350 582 -150 163 -433 431 -456
431 -3 0 -46 -43 -96 -96z"/>
<path d="M34519 9248 c-74 -79 -164 -174 -200 -213 -36 -38 -95 -101 -131
-140 -37 -38 -93 -99 -126 -134 l-60 -64 -26 21 c-22 17 -192 176 -351 327
-23 22 -60 57 -83 79 l-40 38 -84 -88 c-45 -48 -119 -126 -163 -172 l-81 -84
65 -62 c86 -81 108 -102 247 -233 65 -61 137 -128 160 -150 22 -21 98 -92 169
-158 70 -66 134 -126 141 -132 7 -7 15 -13 18 -13 6 0 5 0 141 146 61 65 128
137 150 159 47 49 238 252 311 331 l51 56 125 -124 c151 -148 162 -169 217
-406 59 -253 70 -272 275 -474 94 -93 173 -168 176 -168 3 0 49 46 102 103 53
56 125 133 160 170 l64 69 -75 71 c-152 145 -208 203 -228 237 -31 53 -75 202
-98 330 -7 39 -33 117 -52 155 -46 92 -170 224 -482 515 -68 63 -132 123 -141
133 -16 16 -24 10 -151 -125z"/>
<path d="M4604 9237 c-119 -108 -244 -221 -271 -245 -11 -9 -57 -51 -103 -92
-45 -41 -92 -84 -105 -95 -12 -11 -41 -37 -64 -58 l-42 -38 50 -57 c27 -31 62
-71 77 -87 16 -17 61 -66 99 -110 68 -78 85 -95 95 -95 3 0 19 13 35 28 17 15
57 52 90 82 33 29 98 87 144 129 46 42 93 84 105 94 20 18 138 123 221 199 22
20 53 48 69 62 l29 26 -54 58 c-65 70 -193 212 -233 258 -16 19 -31 34 -35 33
-3 0 -52 -42 -107 -92z"/>
<path d="M7785 8287 c-40 -46 -369 -424 -409 -469 -22 -25 -62 -70 -87 -100
-26 -29 -81 -93 -123 -141 -42 -48 -76 -90 -76 -92 0 -3 79 -73 285 -254 17
-14 64 -55 105 -90 41 -36 80 -70 85 -75 6 -6 39 -36 75 -66 36 -30 79 -68 96
-83 18 -15 40 -34 50 -41 16 -13 12 -21 -63 -107 -175 -203 -202 -219 -492
-285 -55 -12 -171 -63 -223 -98 -49 -32 -115 -96 -183 -177 -11 -13 -53 -61
-93 -106 l-72 -81 68 -60 c56 -50 212 -186 273 -239 19 -16 18 -17 89 67 202
239 235 261 475 324 193 50 266 88 381 201 87 85 122 124 254 274 30 35 71 82
91 105 111 126 139 160 139 165 -1 3 -22 23 -48 44 -26 20 -63 52 -83 70 -20
17 -65 57 -100 87 -35 30 -86 75 -114 100 -69 61 -171 150 -220 191 -22 19
-56 49 -76 67 -20 18 -45 39 -54 46 -12 9 -15 17 -9 28 7 12 71 89 119 142 48
54 99 112 145 166 30 35 66 75 79 89 13 14 39 45 58 68 l34 42 -43 39 c-56 51
-264 232 -292 254 -21 16 -23 16 -41 -5z"/>
<path d="M33340 7810 c-25 -5 -63 -11 -85 -15 -49 -8 -174 -57 -235 -92 -53
-30 -153 -95 -160 -103 -3 -3 -25 -20 -49 -37 -90 -66 -350 -314 -458 -438
-28 -33 -65 -76 -82 -95 -17 -19 -31 -40 -31 -46 0 -6 37 -45 83 -87 45 -41
107 -98 137 -126 l55 -51 28 33 c217 254 410 433 549 511 167 93 293 103 434
36 27 -13 51 -26 54 -29 3 -4 23 -19 45 -36 55 -40 117 -104 275 -280 74 -82
139 -155 145 -161 19 -21 160 -179 215 -240 30 -34 57 -63 60 -63 3 -1 31 23
61 52 31 28 85 77 120 109 35 31 89 79 119 107 l55 50 -35 38 c-19 21 -38 40
-41 43 -3 3 -32 34 -64 70 -32 36 -93 103 -135 150 -42 47 -128 141 -190 210
-278 307 -370 388 -515 450 -99 42 -250 59 -355 40z"/>
<path d="M33144 6687 c-27 -30 -293 -272 -322 -293 -14 -10 -13 -15 12 -45 28
-33 152 -172 191 -213 11 -12 54 -60 95 -106 41 -47 82 -92 90 -100 12 -12 74
-80 202 -224 21 -23 3 -36 214 155 l161 146 -61 65 c-76 81 -192 210 -237 263
-19 22 -44 49 -55 60 -12 11 -66 70 -120 130 -155 173 -158 176 -170 162z"/>
<path d="M8615 6464 c-66 -85 -155 -201 -199 -257 -43 -56 -88 -115 -100 -130
-11 -16 -39 -52 -61 -80 -104 -134 -128 -168 -119 -176 9 -8 282 -217 345
-264 l35 -26 94 122 c51 67 136 178 189 247 52 69 120 157 151 196 30 39 64
83 75 98 11 15 30 40 43 54 13 15 30 39 38 54 l14 27 -189 146 c-104 80 -191
145 -193 145 -2 0 -58 -70 -123 -156z"/>
<path d="M9351 5886 c-51 -77 -143 -218 -204 -312 -62 -94 -150 -228 -197
-299 -47 -71 -87 -134 -89 -139 -2 -6 -8 -15 -13 -21 -9 -9 -91 -134 -287
-435 -69 -106 -79 -126 -66 -135 9 -5 98 -63 197 -129 l182 -119 19 24 c11 13
65 94 121 180 55 85 164 251 241 369 77 118 190 291 252 384 61 94 118 180
126 191 15 20 15 20 71 -7 93 -46 223 -134 285 -195 108 -105 140 -211 106
-342 -26 -101 -41 -127 -253 -451 -64 -96 -149 -227 -190 -290 -41 -63 -97
-148 -123 -188 l-49 -72 103 -67 c56 -36 129 -84 162 -106 33 -22 77 -50 97
-63 l38 -24 79 123 c120 183 209 320 221 337 22 31 144 219 224 345 86 134
151 270 171 355 30 126 21 248 -26 370 -77 200 -251 371 -599 591 -108 68
-358 202 -461 246 l-45 20 -93 -141z"/>
<path d="M30898 5865 c-2 -1 -25 -5 -53 -8 -27 -3 -57 -8 -65 -11 -8 -3 -26
-7 -40 -10 -89 -15 -307 -123 -477 -237 -133 -89 -320 -230 -393 -298 -30 -28
-58 -50 -62 -51 -4 0 -15 -11 -23 -24 -16 -23 -14 -27 95 -162 62 -77 115
-143 119 -147 5 -4 44 23 87 60 248 214 447 344 609 399 63 21 99 27 171 28
84 0 97 -3 160 -34 122 -60 187 -137 469 -559 138 -206 253 -378 256 -384 4
-6 25 2 53 19 44 28 337 224 345 231 3 1 -49 83 -115 180 -65 98 -121 182
-123 187 -2 6 -12 19 -23 30 -10 11 -18 25 -18 32 0 7 -3 14 -7 16 -10 4 -53
65 -53 74 0 3 -13 23 -30 44 -16 21 -30 41 -30 44 0 4 -9 16 -20 28 -11 12
-20 28 -20 35 0 7 -4 13 -8 13 -4 0 -16 15 -26 33 -65 112 -176 243 -291 342
-42 37 -159 92 -232 110 -51 13 -246 28 -255 20z"/>
<path d="M12206 5088 c-18 -40 -46 -100 -61 -133 -85 -186 -176 -386 -195
-430 -13 -27 -43 -93 -67 -145 -25 -52 -52 -113 -60 -135 -9 -22 -20 -44 -25
-50 -15 -17 -8 -30 25 -44 17 -8 70 -32 117 -54 47 -21 105 -48 130 -59 25
-11 83 -38 128 -59 46 -22 85 -39 87 -39 2 0 43 -19 92 -41 48 -23 117 -54
153 -71 67 -30 113 -51 118 -54 4 -2 -25 -67 -90 -202 -62 -131 -124 -195
-261 -272 -240 -135 -299 -205 -437 -515 -12 -27 -31 -69 -41 -92 -11 -23 -19
-45 -19 -48 0 -3 15 -12 34 -20 19 -8 78 -35 131 -60 53 -25 98 -45 100 -45 2
0 37 -16 78 -35 41 -19 78 -35 81 -35 4 0 15 19 25 43 31 69 90 198 119 256
46 93 109 147 315 271 97 57 166 119 215 191 44 65 159 295 247 494 7 17 32
70 54 119 64 139 72 122 -81 190 -150 67 -177 79 -443 201 -223 102 -279 127
-283 130 -2 2 16 43 39 91 23 49 61 134 86 189 24 55 57 127 72 160 55 117 81
176 81 180 0 5 -22 15 -267 126 -84 38 -155 69 -158 69 -3 0 -21 -33 -39 -72z"/>
<path d="M29018 4862 c-111 -37 -210 -104 -280 -190 -50 -61 -97 -190 -105
-288 l-5 -70 117 -78 c64 -42 119 -76 121 -73 2 2 11 31 19 63 20 75 60 133
113 163 53 28 95 29 153 3 54 -25 81 -55 147 -155 62 -95 205 -378 219 -432 5
-22 11 -72 12 -111 2 -77 -23 -162 -60 -205 -12 -13 -26 -31 -33 -40 -20 -28
-115 -90 -167 -110 -69 -27 -146 -33 -216 -19 -153 32 -253 134 -391 400 -32
63 -101 196 -152 295 -51 99 -123 237 -159 306 l-65 127 -121 -62 c-66 -33
-122 -63 -125 -66 -3 -3 -44 -25 -92 -49 l-86 -43 32 -62 c18 -33 77 -146 131
-251 259 -502 295 -566 389 -690 161 -211 385 -326 640 -328 155 -2 259 21
405 90 226 105 388 266 465 463 25 64 54 170 54 200 0 8 1 42 2 75 2 64 -12
157 -36 241 -76 266 -300 658 -443 774 -24 19 -48 40 -55 45 -6 6 -47 28 -90
49 -73 35 -88 39 -180 42 -80 3 -113 0 -158 -14z"/>
<path d="M30453 4666 c-101 -67 -188 -127 -194 -133 -8 -8 59 -115 246 -396
l257 -385 27 16 c71 45 298 198 309 209 6 6 21 15 32 18 11 3 20 13 20 21 0
13 -493 759 -508 768 -4 2 -89 -51 -189 -118z"/>
<path d="M27057 3864 c-1 -1 -29 -4 -62 -8 -108 -10 -156 -21 -285 -63 -152
-49 -263 -102 -382 -180 -37 -24 -70 -48 -72 -52 -6 -9 -1 -17 102 -186 46
-74 87 -135 90 -135 4 1 36 23 72 50 83 63 190 116 288 141 197 51 351 13 481
-118 37 -37 81 -93 98 -123 76 -136 112 -301 91 -415 -13 -70 -15 -79 -42
-136 -80 -176 -307 -305 -570 -325 -27 -2 -51 -6 -54 -8 -3 -4 24 -147 63
-336 2 -8 4 -19 4 -24 1 -8 73 -3 128 8 60 12 199 50 208 56 6 4 39 17 75 30
320 112 563 338 650 603 12 34 23 77 26 96 3 18 8 43 10 55 6 28 6 165 0 192
-2 12 -7 39 -10 60 -26 159 -111 357 -217 499 -142 193 -380 309 -652 319 -21
0 -39 0 -40 0z"/>
<path d="M13516 3803 c-3 -10 -52 -182 -109 -383 -109 -380 -125 -442 -143
-571 -10 -76 -11 -275 -2 -329 5 -25 10 -55 13 -68 10 -57 40 -143 73 -212
117 -245 342 -421 652 -509 92 -26 131 -34 215 -47 33 -6 266 -5 274 0 4 3 21
8 38 10 85 16 221 69 333 131 61 35 216 188 229 228 2 7 7 14 10 17 25 20 132
216 189 345 45 103 36 82 191 450 l118 280 -26 12 c-64 30 -412 135 -420 127
-4 -5 -23 -47 -41 -94 -18 -47 -39 -98 -46 -115 -7 -16 -38 -91 -68 -165 -128
-318 -168 -407 -245 -539 -89 -150 -209 -261 -325 -297 -105 -33 -259 -25
-385 20 -184 67 -330 241 -340 405 -3 43 -2 44 26 38 178 -39 356 -41 484 -7
102 28 216 109 283 203 25 34 116 217 116 233 0 6 70 191 91 239 25 60 80 208
77 210 -2 1 -97 33 -213 70 -115 37 -213 69 -216 71 -3 2 -20 -36 -38 -84 -18
-48 -36 -96 -41 -107 -5 -11 -29 -72 -54 -136 -117 -307 -190 -386 -359 -393
-43 -2 -114 9 -125 18 -2 3 60 250 86 336 8 30 17 60 18 65 2 6 32 102 68 214
36 113 64 206 63 207 -3 3 -437 144 -443 144 -1 0 -5 -8 -8 -17z"/>
<path d="M22715 3460 c-22 -5 -67 -11 -100 -15 -33 -4 -62 -8 -65 -10 -3 -2
-29 -6 -59 -10 -30 -4 -61 -8 -70 -10 -9 -1 -40 -6 -68 -10 l-53 -7 6 -41 c3
-23 9 -64 14 -92 5 -27 14 -86 20 -130 6 -44 14 -93 16 -110 9 -53 13 -79 19
-120 3 -22 10 -69 16 -105 6 -36 12 -76 14 -90 2 -14 6 -38 8 -55 3 -16 8 -50
12 -75 4 -25 9 -58 12 -75 3 -16 10 -66 17 -110 7 -44 16 -79 22 -79 5 1 32 5
59 8 28 4 57 9 65 11 8 2 35 6 60 9 25 3 56 8 69 11 12 2 42 7 65 9 22 3 50 7
61 10 11 2 40 7 65 10 25 3 56 8 69 11 14 2 59 9 101 15 42 6 87 13 101 15 13
3 42 8 64 11 51 6 93 13 128 20 21 4 27 2 28 -13 2 -33 8 -71 19 -130 19 -101
23 -205 10 -266 -6 -32 -38 -111 -70 -175 -94 -192 -112 -250 -113 -367 -1
-87 3 -148 17 -221 2 -10 7 -39 10 -64 18 -121 30 -179 36 -175 3 2 26 6 51 9
24 3 55 8 69 11 14 3 45 8 70 11 61 8 91 12 119 18 13 3 49 8 80 12 31 3 59 8
63 10 7 5 2 60 -17 164 -2 8 -6 35 -9 60 -3 25 -8 56 -12 70 -11 53 -4 160 15
210 10 27 18 50 16 50 -2 0 19 46 47 103 92 186 101 217 104 352 2 106 -6 189
-40 425 -4 25 -12 72 -17 105 -6 33 -13 74 -15 90 -2 17 -6 41 -9 55 -2 14 -7
48 -11 75 -3 28 -9 53 -12 56 -4 4 -57 -1 -119 -11 -61 -11 -131 -22 -155 -25
-23 -3 -55 -8 -69 -10 -14 -3 -41 -7 -60 -9 -19 -3 -47 -7 -64 -10 -111 -18
-227 -36 -265 -41 -25 -3 -52 -8 -60 -10 -8 -2 -35 -6 -60 -9 -25 -3 -55 -8
-66 -10 -21 -4 -23 2 -39 107 -9 62 -18 122 -20 134 -2 12 -9 57 -15 100 -6
43 -13 89 -16 103 -2 14 -9 54 -14 90 -18 116 -23 140 -29 139 -3 -1 -24 -5
-46 -9z"/>
<path d="M25408 3350 c-168 -35 -426 -136 -415 -163 3 -6 32 -79 65 -161 34
-82 64 -152 69 -157 5 -5 40 3 78 17 94 35 98 35 192 39 68 2 89 -1 130 -20
90 -42 127 -110 203 -365 28 -96 65 -220 81 -275 17 -55 31 -104 33 -110 1 -5
10 -34 19 -64 9 -30 16 -55 14 -57 -2 -2 -163 -51 -292 -89 -49 -15 -111 -33
-136 -41 l-47 -15 18 -57 c10 -31 23 -69 29 -84 6 -16 9 -28 7 -28 -7 0 62
-214 71 -217 4 -2 130 33 278 78 149 44 277 82 285 84 8 2 67 19 130 38 63 19
141 42 173 51 63 18 61 17 47 60 -14 41 -161 537 -165 556 -9 38 -149 503
-171 562 -77 218 -194 354 -352 409 -80 29 -230 33 -344 9z"/>
<path d="M24510 3099 c-69 -16 -169 -39 -223 -51 l-99 -22 5 -30 c3 -17 25
-112 47 -211 23 -99 43 -187 45 -195 5 -24 13 -59 36 -155 11 -49 23 -99 25
-110 4 -23 1 -10 54 -240 23 -99 43 -187 45 -195 2 -8 11 -46 19 -85 16 -68
21 -90 31 -130 8 -35 31 -136 60 -267 22 -97 33 -128 44 -128 9 0 50 9 91 19
59 15 167 39 200 46 66 12 170 41 170 46 0 4 -14 68 -31 141 -29 128 -34 148
-43 193 -2 11 -10 43 -16 70 -6 28 -14 61 -16 74 -3 14 -7 28 -9 31 -2 4 -7
22 -10 41 -3 19 -15 72 -26 119 -11 47 -23 96 -25 110 -3 14 -7 33 -10 42 -3
10 -7 30 -10 45 -3 16 -12 55 -21 88 -8 33 -17 71 -20 85 -2 14 -13 63 -24
110 -11 47 -26 112 -34 145 -7 33 -26 112 -40 175 -15 63 -28 120 -29 125 -1
6 -8 40 -16 78 -10 49 -18 67 -29 66 -9 0 -72 -14 -141 -30z"/>
<path d="M16709 2834 c0 -22 -3 -105 -5 -186 l-5 -148 83 0 c78 -1 208 -8 253
-14 12 -2 20 -10 19 -22 -3 -43 -22 -206 -29 -244 -3 -14 -7 -45 -10 -70 -3
-25 -8 -62 -10 -82 -3 -21 -7 -55 -10 -75 -2 -21 -9 -76 -15 -123 -6 -47 -15
-114 -20 -150 -5 -36 -12 -83 -15 -105 -21 -153 -55 -195 -158 -195 -52 0
-169 31 -194 52 -9 7 -15 4 -22 -13 -75 -196 -101 -268 -101 -275 0 -13 127
-61 224 -86 283 -70 475 -52 591 57 50 47 91 141 110 250 2 17 7 39 9 51 2 12
7 45 11 74 4 29 8 60 10 69 1 9 6 45 10 81 4 36 8 72 10 81 2 8 6 42 9 75 4
32 8 66 11 74 2 8 6 42 10 75 7 64 8 74 25 200 14 103 17 129 26 193 4 29 10
55 14 57 14 9 227 -34 319 -65 171 -55 223 -109 250 -254 10 -54 8 -260 -3
-312 -2 -12 -7 -45 -11 -75 -3 -30 -8 -65 -10 -79 -2 -14 -7 -50 -10 -80 -3
-30 -8 -62 -10 -70 -2 -8 -6 -42 -10 -75 -3 -33 -10 -94 -16 -135 -15 -111
-17 -127 -29 -225 -6 -49 -13 -100 -15 -112 -3 -18 1 -23 18 -24 12 0 29 -2
37 -3 8 -2 38 -6 65 -10 103 -13 131 -16 165 -21 19 -3 58 -8 85 -11 28 -2 62
-7 76 -9 16 -3 26 0 26 8 0 13 12 104 18 147 4 26 11 76 20 150 3 25 10 77 15
115 5 39 12 93 15 120 3 28 8 65 11 83 10 77 13 100 20 157 3 33 8 68 10 79 2
10 6 44 9 75 4 31 8 67 11 81 5 31 5 225 0 262 -20 135 -51 219 -112 304 -75
106 -169 174 -319 231 -81 31 -289 85 -380 99 -27 4 -57 9 -65 10 -8 2 -37 6
-65 9 -27 3 -61 8 -75 10 -14 2 -54 7 -90 11 -36 3 -72 7 -80 9 -14 3 -117 11
-250 21 -30 2 -144 7 -252 10 l-198 7 -1 -39z"/>
<path d="M21988 2695 c-2 -2 -39 -6 -83 -9 -104 -8 -213 -17 -292 -25 -8 -1
-11 -13 -8 -33 2 -18 6 -71 10 -118 3 -47 8 -101 10 -120 2 -19 7 -73 10 -120
3 -47 8 -103 10 -125 2 -22 7 -74 10 -115 3 -41 7 -97 10 -125 2 -27 7 -86 10
-130 3 -44 8 -93 10 -110 2 -16 7 -70 10 -120 3 -49 8 -108 10 -130 2 -22 7
-75 10 -117 4 -42 8 -99 11 -125 2 -26 7 -84 10 -128 4 -44 8 -91 9 -105 2
-14 3 -35 4 -47 1 -20 5 -22 34 -18 31 4 95 9 248 21 42 3 85 7 95 9 11 2 40
4 65 4 l47 1 -3 43 c-4 55 -14 180 -20 237 -2 25 -7 81 -10 125 -3 44 -8 98
-10 120 -2 22 -7 69 -9 105 -10 118 -17 204 -21 255 -3 28 -7 84 -10 125 -11
136 -14 174 -20 230 -3 30 -7 82 -10 115 -2 33 -6 87 -9 120 -3 33 -8 97 -12
143 -3 46 -7 91 -9 100 -2 9 -4 29 -4 45 -1 26 -3 27 -51 26 -27 -1 -51 -3
-52 -4z"/>
<path d="M19122 2632 c1 -17 -8 -229 -18 -427 -2 -55 -6 -152 -9 -215 -2 -63
-7 -168 -10 -232 l-5 -118 62 -1 c35 0 99 -2 143 -4 44 -3 126 -6 183 -9 l102
-4 1 51 c1 29 2 77 4 107 5 96 17 362 20 450 15 334 16 390 8 391 -12 2 -109
7 -293 14 -91 3 -170 8 -177 10 -6 2 -11 -4 -11 -13z"/>
<path d="M20357 2634 c-1 -1 -35 -5 -75 -8 -41 -3 -85 -8 -98 -11 -81 -17 -75
-12 -70 -58 3 -23 8 -67 11 -97 4 -30 8 -68 10 -85 2 -16 7 -56 10 -87 7 -56
8 -58 34 -53 51 10 208 6 256 -6 103 -26 163 -88 195 -204 6 -22 13 -136 16
-252 5 -174 3 -213 -8 -214 -93 -5 -262 -66 -353 -127 -104 -70 -216 -201
-278 -327 -37 -74 -127 -281 -127 -291 0 -3 91 -2 203 0 111 3 218 5 237 5 35
1 35 2 100 133 87 176 166 255 281 283 25 6 26 5 89 -199 l63 -206 216 4 c119
3 226 5 237 5 21 1 19 10 -43 223 -35 123 -66 231 -68 241 -2 9 -6 21 -9 25
-3 5 -7 19 -10 33 -3 13 -14 56 -26 94 -17 59 -21 104 -25 285 -5 217 -11 344
-20 390 -8 38 -19 94 -20 100 -24 95 -76 189 -136 249 -101 101 -251 151 -467
155 -67 1 -123 1 -125 0z"/>
</g>
</svg>
